# xmcd
#
# Track frame offsets:
#	150
#	14243
#	30035
#	43567
#	60157
#	75829
#	87905
#	102368
#	120592
#	135718
#	150453
#	166710
#	183502
#	197629
#
# Disc length: 2800 seconds
#
# Revision: 1
# Processed by: cddbd v1.5.1PL2 Copyright (c) Steve Scherf et al.
# Submitted via: audiograbber 1.83.01
#
DISCID=9b0aee0e
DTITLE=Compilation - Star Disc 140
DYEAR=2006
DGENRE=Karaoke
TTITLE0=KENNY CHESNEY - LIVING IN FAST FORWARD 
TTITLE1=RASCAL FLATTS - WHAT HURTS THE MOST 
TTITLE2=TOBY KEITH - GET DRUNK AND BE SOMEBODY 
TTITLE3=DIERKS BENTLEY - SETTLE FOR A SLOWDOWN 
TTITLE4=GARY ALLAN - LIFE AINT ALWAYS BEAUTIFUL 
TTITLE5=JOE NICHOLS - SIZE MATTERS (SOMEDAY) 
TTITLE6=SUSAN HAYNES - DRINKIN' IN MY SUNDAY DRESS 
TTITLE7=KEITH ANDERSON - EVERY TIME I HEAR YOUR NAME 
TTITLE8=KENNY ROGERS - I CANT UNLOVE YOU 
TTITLE9=JOHN PIERCE - ID STILL HAVE YOU 
TTITLE10=RODNEY ATKINS - IF YOURE GOING THROUGH HELL 
TTITLE11=BLAINE LARSEN - I DONT KNOW WHAT SHE SAID 
TTITLE12=NEAL McCOY - THE LAST OF A DYING BREED 
TTITLE13=J. PHOENIX - R. WITHERSPOON  - JACKSON 
EXTD=
EXTT0=
EXTT1=
EXTT2=
EXTT3=
EXTT4=
EXTT5=
EXTT6=
EXTT7=
EXTT8=
EXTT9=
EXTT10=
EXTT11=
EXTT12=
EXTT13=
PLAYORDER=
